HIERARCHY
ROOT SpineBase
{
  OFFSET 0.000000 0.000000 0.000000
  CHANNELS 6 Xposition Yposition Zposition Zrotation Xrotation Yrotation
  JOINT SpineMid
  {
    OFFSET -0.000000 29.956234 0.000000
    CHANNELS 3 Zrotation Xrotation Yrotation
    JOINT SpineShoulder
    {
      OFFSET 0.051639 22.076646 -0.705114
      CHANNELS 3 Zrotation Xrotation Yrotation
      JOINT Neck
      {
        OFFSET 0.049195 7.240381 -0.559205
        CHANNELS 3 Zrotation Xrotation Yrotation
        JOINT Head
        {
          OFFSET -2.031767 12.330159 0.346716
          CHANNELS 3 Zrotation Xrotation Yrotation
          End Site
          {
            OFFSET 0 0 0
          }
        }
      }
      JOINT ShoulderLeft
      {
        OFFSET -16.631089 -4.864087 -3.710928
        CHANNELS 3 Zrotation Xrotation Yrotation
        JOINT ElbowLeft
        {
          OFFSET 0.503972 -19.334983 -14.707129
          CHANNELS 3 Zrotation Xrotation Yrotation
          JOINT WristLeft
          {
            OFFSET 22.341650 -3.255289 -2.859426
            CHANNELS 3 Zrotation Xrotation Yrotation
            JOINT HandLeft
            {
              OFFSET 4.460136 0.383072 0.558861
              CHANNELS 3 Zrotation Xrotation Yrotation
              JOINT HandTipLeft
              {
                OFFSET 6.428939 0.282043 -1.140371
                CHANNELS 3 Zrotation Xrotation Yrotation
                End Site
                {
                  OFFSET 0 0 0
                }
              }
              JOINT ThumbLeft
              {
                OFFSET -0.871946 -6.232361 5.492288
                CHANNELS 3 Zrotation Xrotation Yrotation
                End Site
                {
                  OFFSET 0 0 0
                }
              }
            }
          }
        }
      }
      JOINT ShoulderRight
      {
        OFFSET 16.145656 -5.336181 -7.044634
        CHANNELS 3 Zrotation Xrotation Yrotation
        JOINT ElbowRight
        {
          OFFSET -1.324233 -19.727353 -12.769179
          CHANNELS 3 Zrotation Xrotation Yrotation
          JOINT WristRight
          {
            OFFSET -21.632834 -5.466848 -2.751766
            CHANNELS 3 Zrotation Xrotation Yrotation
            JOINT HandRight
            {
              OFFSET -6.770796 5.721068 2.803319
              CHANNELS 3 Zrotation Xrotation Yrotation
              JOINT HandTipRight
              {
                OFFSET -7.524764 2.168746 0.671218
                CHANNELS 3 Zrotation Xrotation Yrotation
                End Site
                {
                  OFFSET 0 0 0
                }
              }
              JOINT ThumbRight
              {
                OFFSET -4.415945 -3.045331 -2.044563
                CHANNELS 3 Zrotation Xrotation Yrotation
                End Site
                {
                  OFFSET 0 0 0
                }
              }
            }
          }
        }
      }
    }
  }
  JOINT HipLeft
  {
    OFFSET -5.627497 0.009867 -3.076505
    CHANNELS 3 Zrotation Xrotation Yrotation
    JOINT KneeLeft
    {
      OFFSET -6.123324 -36.019324 6.355026
      CHANNELS 3 Zrotation Xrotation Yrotation
      JOINT AnkleLeft
      {
        OFFSET -1.434066 -36.521557 18.461203
        CHANNELS 3 Zrotation Xrotation Yrotation
        JOINT FootLeft
        {
          OFFSET -1.065151 -9.037168 -3.235334
          CHANNELS 3 Zrotation Xrotation Yrotation
          End Site
          {
            OFFSET 0 0 0
          }
        }
      }
    }
  }
  JOINT HipRight
  {
    OFFSET 6.420894 0.447247 -4.659904
    CHANNELS 3 Zrotation Xrotation Yrotation
    JOINT KneeRight
    {
      OFFSET 8.588320 -37.361739 3.619988
      CHANNELS 3 Zrotation Xrotation Yrotation
      JOINT AnkleRight
      {
        OFFSET 4.325036 -33.181278 16.595001
        CHANNELS 3 Zrotation Xrotation Yrotation
        JOINT FootRight
        {
          OFFSET -0.903221 -5.220911 -13.792001
          CHANNELS 3 Zrotation Xrotation Yrotation
          End Site
          {
            OFFSET 0 0 0
          }
        }
      }
    }
  }
}
MOTION
Frames: 13
Frame Time: 0.033333
-37.221214 82.720238 354.706973 0.000000 0.000000 7.486901 -0.000000 0.000000 -7.486901 -0.000000 0.000000 0.000000 -0.000000 0.000000 0.000000 0.000000 0.000000 0.000000 -0.000000 0.000000 0.000000 -0.000000 0.000000 0.000000 -0.000000 0.000000 0.000000 -0.000000 0.000000 0.000000 0.000000 0.000000 0.000000 0.000000 0.000000 0.000000 -0.000000 0.000000 0.000000 -0.000000 0.000000 0.000000 -0.000000 0.000000 0.000000 -0.000000 0.000000 0.000000 0.000000 0.000000 0.000000 0.000000 0.000000 0.000000 -0.000000 0.000000 -7.486901 -0.000000 0.000000 0.000000 -0.000000 0.000000 0.000000 0.000000 0.000000 0.000000 -0.000000 0.000000 -7.486901 -0.000000 0.000000 0.000000 -0.000000 0.000000 0.000000 0.000000 0.000000 0.000000
-37.086028 82.731810 354.909645 0.082621 -0.067268 7.740475 -0.072808 0.077783 -7.740377 -0.000000 0.000000 0.000000 -0.000000 0.000000 0.000000 0.000000 0.000000 0.000000 -0.000000 0.000000 0.000000 -0.000000 0.000000 0.000000 -0.000000 0.000000 0.000000 -0.561775 -0.160016 1.230700 0.000000 0.000000 0.000000 0.000000 0.000000 0.000000 -0.000000 0.000000 0.000000 -0.000000 0.000000 0.000000 -1.426823 0.209176 0.962643 2.186640 -0.689205 -2.689355 0.000000 0.000000 0.000000 0.000000 0.000000 0.000000 -0.072808 0.077783 -7.740377 -0.000000 0.000000 0.000000 0.628661 0.746562 -0.316620 0.000000 0.000000 0.000000 -0.072808 0.077783 -7.740377 -0.000000 0.000000 0.000000 -0.000000 0.000000 0.000000 0.000000 0.000000 0.000000
-36.953261 82.744288 355.097093 0.150747 -0.124250 7.944936 -0.132126 0.143894 -7.944606 -0.000000 0.000000 0.000000 -0.000000 0.000000 0.000000 0.000000 0.000000 0.000000 -0.000000 0.000000 0.000000 -0.180022 0.133904 1.087929 1.110012 -0.200001 -2.011055 -1.921953 -0.284861 3.239014 0.000000 0.000000 0.000000 0.000000 0.000000 0.000000 -0.000000 0.000000 0.000000 1.314373 -0.194772 0.116741 -4.080761 0.562946 1.738534 4.284535 -1.340056 -5.056386 0.000000 0.000000 0.000000 0.000000 0.000000 0.000000 -0.132126 0.143894 -7.944606 -0.000000 0.000000 0.000000 1.147615 1.337081 -0.580111 0.000000 0.000000 0.000000 -0.132126 0.143894 -7.944606 -0.000000 0.000000 0.000000 -0.000000 0.000000 0.000000 0.000000 0.000000 0.000000
-36.822914 82.757673 355.269317 0.204343 -0.170920 8.100247 -0.178222 0.198007 -8.099635 -0.000000 0.000000 0.000000 -0.000000 0.000000 0.000000 0.000000 0.000000 0.000000 -0.000000 0.000000 0.000000 -0.266218 0.185290 1.528062 1.335968 -0.250327 -2.901907 -2.360764 -0.438494 4.622498 0.000000 0.000000 0.000000 0.000000 0.000000 0.000000 -0.000000 0.000000 0.000000 1.964270 -0.259357 0.045032 -5.967051 0.719348 2.603822 6.284869 -1.936525 -7.092427 0.000000 0.000000 0.000000 0.000000 0.000000 0.000000 -0.178222 0.198007 -8.099635 -0.000000 0.000000 0.000000 1.558412 1.777427 -0.788510 0.000000 0.000000 0.000000 -0.178222 0.198007 -8.099635 -0.000000 0.000000 0.000000 -0.000000 0.000000 0.000000 0.000000 0.000000 0.000000
-36.694986 82.771965 355.426318 0.243379 -0.207256 8.206435 -0.211305 0.239872 -8.205552 -0.000000 0.000000 0.000000 -0.000000 0.000000 0.000000 0.000000 0.000000 0.000000 -0.000000 0.000000 0.000000 -0.349594 0.226572 1.899079 1.355304 -0.257786 -3.719933 -2.466364 -0.585229 5.851315 0.000000 0.000000 0.000000 0.000000 0.000000 0.000000 -0.000000 0.000000 0.000000 2.608936 -0.304010 -0.113947 -7.729373 0.788697 3.447257 8.181859 -2.463529 -8.793665 0.000000 0.000000 0.000000 0.000000 0.000000 0.000000 -0.211305 0.239872 -8.205552 -0.730176 0.379466 -0.382125 2.580697 1.710464 -0.541390 0.000000 0.000000 0.000000 -0.940035 0.757874 -8.182262 0.795046 -0.408954 -0.014108 -0.000000 0.000000 0.000000 0.000000 0.000000 0.000000
-36.569479 82.787164 355.568094 0.267829 -0.233237 8.263580 -0.231529 0.269308 -8.262491 -0.000000 0.000000 0.000000 -0.000000 0.000000 0.000000 0.000000 0.000000 0.000000 -0.000000 0.000000 0.000000 -0.429996 0.257946 2.201080 1.175297 -0.217132 -4.467031 -2.248659 -0.716601 6.929242 0.000000 0.000000 0.000000 0.000000 0.000000 0.000000 -0.000000 0.000000 0.000000 3.248193 -0.330170 -0.360526 -9.355566 0.771097 4.258473 9.972566 -2.907318 -10.160557 0.000000 0.000000 0.000000 0.000000 0.000000 0.000000 -0.231529 0.269308 -8.262491 -0.845236 0.426304 -0.441559 2.891327 1.821694 -0.572299 0.000000 0.000000 0.000000 -1.121929 0.879603 -8.237958 0.968676 -0.476313 -0.011579 -0.000000 0.000000 0.000000 0.000000 0.000000 0.000000
-36.420229 82.805382 355.697703 0.305230 -0.250197 8.205949 -0.266398 0.291198 -8.204606 -0.000000 0.000000 0.000000 -0.000000 0.000000 0.000000 0.000000 0.000000 0.000000 -0.420083 -0.664092 0.301148 -0.140668 0.940782 2.170677 0.233797 -0.019703 -4.992010 -0.361679 -0.654439 7.317342 0.000000 0.000000 0.000000 0.000000 0.000000 0.000000 -0.535439 -0.572566 0.383461 4.586706 0.175653 -1.108889 -11.187852 0.485302 4.858595 12.006675 -2.875908 -10.577960 0.000000 0.000000 0.000000 0.000000 0.000000 0.000000 -0.266398 0.291198 -8.204606 -0.942938 0.403385 -0.489885 3.438796 1.768249 -0.680209 0.000000 0.000000 0.000000 -1.347940 0.966503 -8.187577 1.166715 -0.514226 0.000077 -0.000000 0.000000 0.000000 0.000000 0.000000 0.000000
-36.300307 82.823891 355.801127 0.296646 -0.256292 8.083390 -0.257664 0.295455 -8.082062 -0.000000 0.000000 0.000000 -0.000000 0.000000 0.000000 0.000000 0.000000 0.000000 -0.476918 -0.798038 0.340486 -0.213530 1.077017 2.285627 -0.273308 0.133042 -5.528821 0.359544 -0.778374 8.498344 0.000000 0.000000 0.000000 0.000000 0.000000 0.000000 -0.497623 -0.769511 0.371926 5.667896 0.353949 -1.790143 -13.192008 0.387639 6.121082 14.216988 -3.325142 -11.435924 0.000000 0.000000 0.000000 0.000000 0.000000 0.000000 -0.257664 0.295455 -8.082062 -1.001913 0.419515 -0.520053 3.505342 1.879252 -0.669119 0.000000 0.000000 0.000000 -1.485321 1.020684 -8.070189 1.317343 -0.545473 0.008499 -0.000000 0.000000 0.000000 0.000000 0.000000 0.000000
-36.192563 82.840753 355.894601 0.259920 -0.246882 7.987304 -0.223097 0.280601 -7.986198 -0.000000 0.000000 0.000000 -0.693690 -0.445889 -0.056730 0.000000 0.000000 0.000000 -0.585244 -0.908740 0.419425 -0.137544 1.189680 2.259198 -0.454712 0.198521 -5.846920 0.217739 -0.947153 9.091735 0.000000 0.000000 0.000000 0.000000 0.000000 0.000000 -0.420539 -0.984555 0.336475 5.717590 0.613503 -2.068892 -13.637827 0.107594 6.373697 14.555210 -3.172441 -11.390602 0.000000 0.000000 0.000000 0.000000 0.000000 0.000000 -0.223097 0.280601 -7.986198 -1.036674 0.415932 -0.537401 3.173693 1.429770 -0.454768 0.000000 0.000000 0.000000 -1.583278 1.062262 -7.976758 1.455538 -0.585053 0.013932 -0.000000 0.000000 0.000000 0.000000 0.000000 0.000000
-36.100265 82.855756 355.973841 0.217472 -0.237409 8.002492 -0.182305 0.265371 -8.001619 -0.000000 0.000000 0.000000 -0.887955 -0.479481 -0.057836 0.000000 0.000000 0.000000 -0.664132 -0.963372 0.477606 -0.010758 1.250370 2.198631 -0.655455 0.259963 -6.199220 0.431849 -0.985215 9.526164 0.000000 0.000000 0.000000 0.000000 0.000000 0.000000 -0.308673 -1.210916 0.279687 5.208147 0.976010 -2.372208 -12.882849 -0.134399 6.395653 14.073699 -3.328786 -12.064948 0.000000 0.000000 0.000000 0.000000 0.000000 0.000000 -0.525498 0.982883 -8.188201 -0.589010 -0.230935 -0.353424 2.661278 1.347230 -0.263721 0.000000 0.000000 0.000000 -1.639643 1.080585 -7.996366 1.556627 -0.604219 0.020074 -0.000000 0.000000 0.000000 0.000000 0.000000 0.000000
-36.027179 82.868153 356.033609 0.164337 -0.224277 8.063230 -0.131255 0.245110 -8.062628 -0.000000 0.000000 0.000000 -0.937264 -0.547883 -0.068508 0.000000 0.000000 0.000000 -0.746135 -1.017993 0.538115 0.190360 1.321710 2.140133 -0.089774 0.125128 -6.401558 -0.703794 -1.071448 9.681147 0.000000 0.000000 0.000000 0.000000 0.000000 0.000000 -0.176264 -1.374892 0.205851 4.513851 1.229597 -2.293499 -11.774609 -0.460912 5.685352 12.420155 -2.810641 -11.539588 0.000000 0.000000 0.000000 0.000000 0.000000 0.000000 -0.515867 1.026889 -8.267389 -0.521556 -0.240068 -0.328226 1.805047 1.232740 0.045164 0.000000 0.000000 0.000000 -1.638922 1.099133 -8.055387 1.612534 -0.633958 0.019369 -0.000000 0.000000 0.000000 0.000000 0.000000 0.000000
-35.978346 82.877615 356.074257 0.092087 -0.195398 8.168397 -0.063391 0.206499 -8.168125 -0.000000 0.000000 0.000000 -0.908528 -0.671972 -0.090643 0.000000 0.000000 0.000000 -0.795486 -1.090629 0.573345 0.420826 1.414497 2.067486 0.299742 -0.018921 -6.229721 -1.941814 -1.123584 8.388366 0.000000 0.000000 0.000000 0.000000 0.000000 0.000000 -0.095873 -1.407865 0.156626 4.993611 1.193329 -2.305102 -12.617504 -0.362990 5.992404 11.839428 -3.565370 -13.795982 0.000000 0.000000 0.000000 0.000000 0.000000 0.000000 -0.476608 1.018681 -8.383003 -0.459655 -0.203809 -0.305662 0.855532 0.755951 0.417151 0.000000 0.000000 0.000000 -1.573805 1.066815 -8.161596 1.617326 -0.636816 0.019243 -0.000000 0.000000 0.000000 0.000000 0.000000 0.000000
-35.948782 82.882460 356.097120 0.004733 -0.178844 8.227480 0.020909 0.177680 -8.227505 -0.000000 0.000000 0.000000 -0.817202 -0.808505 -0.116174 0.000000 0.000000 0.000000 -0.893912 -1.167637 0.645550 0.742268 1.515641 1.953151 0.625819 -0.198363 -5.596465 -2.607281 -0.866608 5.410061 0.000000 0.000000 0.000000 0.000000 0.000000 0.000000 -0.066209 -1.345017 0.133378 4.873582 1.065104 -1.885860 -12.638212 -0.710632 5.027927 11.203670 -2.681714 -12.595496 0.000000 0.000000 0.000000 0.000000 0.000000 0.000000 -0.384802 0.980044 -8.439716 -0.455323 -0.055772 -0.306525 0.030571 0.542516 0.714123 0.000000 0.000000 0.000000 -1.463129 1.053759 -8.215475 1.594079 -0.654680 0.013027 -0.000000 0.000000 0.000000 0.000000 0.000000 0.000000
